<?xml version="1.0" encoding="iso-8859-1"?>
<!DOCTYPE svg PUBLIC "-//W3C//DTD SVG 1.1//EN" "http://www.w3.org/Graphics/SVG/1.1/DTD/svg11.dtd">
<svg xmlns="http://www.w3.org/2000/svg" xmlns:xlink="http://www.w3.org/1999/xlink" version="1.1" viewBox="0 0 236.027 236.027" enable-background="new 0 0 236.027 236.027" width="512px" height="512px">
  <g>
    <path d="m210.907,106.194c0-58.147-47.306-105.454-105.453-105.454s-105.454,47.306-105.454,105.454 47.307,105.454 105.454,105.454c3.313,0 6-2.687 6-6v-93.454h93.453c3.314,0 6-2.687 6-6zm-105.453-6c-3.313,0-6,2.687-6,6v93.263c-48.745-3.105-87.454-43.749-87.454-93.263 0-51.53 41.923-93.454 93.454-93.454 49.515,0 90.158,38.709 93.263,87.454h-93.263z" fill="#eeeeee"/>
    <path d="m230.027,123.834h-99.454c-3.313,0-6,2.687-6,6v99.454c0,3.313 2.687,6 6,6 58.147,0 105.454-47.306 105.454-105.454 0-3.314-2.686-6-6-6zm-93.454,99.263v-87.263h87.264c-2.979,46.76-40.504,84.285-87.264,87.263z" fill="#eeeeee"/>
  </g>
</svg>
